<svg xmlns="http://www.w3.org/2000/svg" width="1000" height="1000" viewBox="0 0 1000 1000" font-family="Helvetica, Arial, sans-serif">
<rect width="1000" height="1000" fill="#ffffff"/>
<polygon points="122.6,109.4 308.5,97.9 559.1,90.0 612.9,416.0 631.1,617.5 644.9,813.3 636.0,910.0 485.1,853.0 349.0,870.2 175.3,761.6 90.0,651.8 100.6,428.6 95.0,278.9" fill="#eaf5ea" fill-opacity="0.9" stroke="#2c6e2f" stroke-width="2.5"/>
<line x1="269.3" y1="424.0" x2="122.6" y2="109.4" stroke="#999" stroke-width="1"/>
<line x1="269.3" y1="424.0" x2="308.5" y2="97.9" stroke="#999" stroke-width="1"/>
<line x1="269.3" y1="424.0" x2="559.1" y2="90.0" stroke="#999" stroke-width="1"/>
<line x1="269.3" y1="424.0" x2="612.9" y2="416.0" stroke="#999" stroke-width="1"/>
<line x1="269.3" y1="424.0" x2="631.1" y2="617.5" stroke="#999" stroke-width="1"/>
<line x1="269.3" y1="424.0" x2="644.9" y2="813.3" stroke="#999" stroke-width="1"/>
<line x1="269.3" y1="424.0" x2="636.0" y2="910.0" stroke="#999" stroke-width="1"/>
<line x1="269.3" y1="424.0" x2="485.1" y2="853.0" stroke="#999" stroke-width="1"/>
<line x1="269.3" y1="424.0" x2="349.0" y2="870.2" stroke="#999" stroke-width="1"/>
<line x1="269.3" y1="424.0" x2="175.3" y2="761.6" stroke="#999" stroke-width="1"/>
<line x1="269.3" y1="424.0" x2="90.0" y2="651.8" stroke="#999" stroke-width="1"/>
<line x1="269.3" y1="424.0" x2="100.6" y2="428.6" stroke="#999" stroke-width="1"/>
<line x1="269.3" y1="424.0" x2="95.0" y2="278.9" stroke="#999" stroke-width="1"/>

<circle cx="269.3" cy="424.0" r="3.5" fill="#c0392b"/>
<text x="269.3" y="414.0" font-size="12" fill="#c0392b" text-anchor="middle" font-weight="bold">N</text>
<text x="116.7" y="100.7" font-size="13" fill="#333" text-anchor="middle" font-weight="bold">A</text>
<text x="310.2" y="88.0" font-size="13" fill="#333" text-anchor="middle" font-weight="bold">B</text>
<text x="568.3" y="83.4" font-size="13" fill="#333" text-anchor="middle" font-weight="bold">C</text>
<text x="626.9" y="419.6" font-size="13" fill="#333" text-anchor="middle" font-weight="bold">D</text>
<text x="643.4" y="628.1" font-size="13" fill="#333" text-anchor="middle" font-weight="bold">E</text>
<text x="654.6" y="827.3" font-size="13" fill="#333" text-anchor="middle" font-weight="bold">F</text>
<text x="644.4" y="925.2" font-size="13" fill="#333" text-anchor="middle" font-weight="bold">G</text>
<text x="491.4" y="869.5" font-size="13" fill="#333" text-anchor="middle" font-weight="bold">H</text>
<text x="351.4" y="887.9" font-size="13" fill="#333" text-anchor="middle" font-weight="bold">I</text>
<text x="171.5" y="779.1" font-size="13" fill="#333" text-anchor="middle" font-weight="bold">J</text>
<text x="81.3" y="666.8" font-size="13" fill="#333" text-anchor="middle" font-weight="bold">K</text>
<text x="86.6" y="432.9" font-size="13" fill="#333" text-anchor="middle" font-weight="bold">L</text>
<text x="84.3" y="273.9" font-size="13" fill="#333" text-anchor="middle" font-weight="bold">M</text>
<text x="212.9" y="91.9" font-size="11" fill="#555" text-anchor="middle">10.03</text>
<text x="440.9" y="83.6" font-size="11" fill="#555" text-anchor="middle">13.53</text>
<text x="600.1" y="249.4" font-size="11" fill="#555" text-anchor="middle">17.81</text>
<text x="637.4" y="524.8" font-size="11" fill="#555" text-anchor="middle">10.91</text>
<text x="650.5" y="729.3" font-size="11" fill="#555" text-anchor="middle">10.62</text>
<text x="650.8" y="877.8" font-size="11" fill="#555" text-anchor="middle">5.26</text>
<text x="569.2" y="899.0" font-size="11" fill="#555" text-anchor="middle">8.75</text>
<text x="422.2" y="880.7" font-size="11" fill="#555" text-anchor="middle">7.39</text>
<text x="261.8" y="835.9" font-size="11" fill="#555" text-anchor="middle">11.06</text>
<text x="125.7" y="725.1" font-size="11" fill="#555" text-anchor="middle">7.50</text>
<text x="82.0" y="553.1" font-size="11" fill="#555" text-anchor="middle">12.08</text>
<text x="83.0" y="351.7" font-size="11" fill="#555" text-anchor="middle">8.08</text>
<text x="99.6" y="185.0" font-size="11" fill="#555" text-anchor="middle">9.30</text>
<text x="500" y="40" font-size="16" fill="#2c6e2f" text-anchor="middle" font-weight="bold">sinwood-31 — gambar situasi (survei triangulasi 31.08.2026)</text>
<text x="500" y="62" font-size="12" fill="#333" text-anchor="middle">Luas terhitung: 1.101,6 m² (11,02 are) · angka konservatif · N = titik pusat pengukuran · 13 titik batas A–M · panjang sisi dalam meter</text>
<text x="500" y="80" font-size="11" fill="#777" text-anchor="middle">Orientasi utara belum diikat — geometri lokal dari titik N; batas-batas berlaku sebagaimana disepakati Para Pihak (per aversionem)</text>
<g transform="translate(90,970)"><line x1="0" y1="0" x2="183.5" y2="0" stroke="#222" stroke-width="2"/><line x1="0" y1="-5" x2="0" y2="5" stroke="#222" stroke-width="2"/><line x1="183.5" y1="-5" x2="183.5" y2="5" stroke="#222" stroke-width="2"/><text x="91.7" y="-8" font-size="12" text-anchor="middle" fill="#222">10 m</text></g>
</svg>