<svg xmlns="http://www.w3.org/2000/svg" width="1000" height="1000" viewBox="0 0 1000 1000" font-family="Helvetica, Arial, sans-serif">
<rect width="1000" height="1000" fill="#ffffff"/>
<polygon points="910.0,649.0 798.3,554.9 747.8,347.0 496.4,387.6 285.8,478.0 133.4,667.5 90.0,738.8 190.9,798.9 263.7,875.8 432.0,910.0 546.3,882.9 672.4,748.1 747.8,649.0" fill="#eaf5ea" fill-opacity="0.9" stroke="#2c6e2f" stroke-width="2.5"/>
<line x1="556.4" y1="648.9" x2="910.0" y2="649.0" stroke="#999" stroke-width="1"/>
<line x1="556.4" y1="648.9" x2="798.3" y2="554.9" stroke="#999" stroke-width="1"/>
<line x1="556.4" y1="648.9" x2="747.8" y2="347.0" stroke="#999" stroke-width="1"/>
<line x1="556.4" y1="648.9" x2="496.4" y2="387.6" stroke="#999" stroke-width="1"/>
<line x1="556.4" y1="648.9" x2="285.8" y2="478.0" stroke="#999" stroke-width="1"/>
<line x1="556.4" y1="648.9" x2="133.4" y2="667.5" stroke="#999" stroke-width="1"/>
<line x1="556.4" y1="648.9" x2="90.0" y2="738.8" stroke="#999" stroke-width="1"/>
<line x1="556.4" y1="648.9" x2="190.9" y2="798.9" stroke="#999" stroke-width="1"/>
<line x1="556.4" y1="648.9" x2="263.7" y2="875.8" stroke="#999" stroke-width="1"/>
<line x1="556.4" y1="648.9" x2="432.0" y2="910.0" stroke="#999" stroke-width="1"/>
<line x1="556.4" y1="648.9" x2="546.3" y2="882.9" stroke="#999" stroke-width="1"/>
<line x1="556.4" y1="648.9" x2="672.4" y2="748.1" stroke="#999" stroke-width="1"/>
<line x1="556.4" y1="648.9" x2="747.8" y2="649.0" stroke="#999" stroke-width="1"/>

<circle cx="556.4" cy="648.9" r="3.5" fill="#c0392b"/>
<text x="556.4" y="638.9" font-size="12" fill="#c0392b" text-anchor="middle" font-weight="bold">N</text>
<text x="924.0" y="648.3" font-size="13" fill="#333" text-anchor="middle" font-weight="bold">A</text>
<text x="811.5" y="550.1" font-size="13" fill="#333" text-anchor="middle" font-weight="bold">B</text>
<text x="756.7" y="336.2" font-size="13" fill="#333" text-anchor="middle" font-weight="bold">C</text>
<text x="496.9" y="373.6" font-size="13" fill="#333" text-anchor="middle" font-weight="bold">D</text>
<text x="275.6" y="468.3" font-size="13" fill="#333" text-anchor="middle" font-weight="bold">E</text>
<text x="119.4" y="667.5" font-size="13" fill="#333" text-anchor="middle" font-weight="bold">F</text>
<text x="76.2" y="741.3" font-size="13" fill="#333" text-anchor="middle" font-weight="bold">G</text>
<text x="178.1" y="804.6" font-size="13" fill="#333" text-anchor="middle" font-weight="bold">H</text>
<text x="253.5" y="885.4" font-size="13" fill="#333" text-anchor="middle" font-weight="bold">I</text>
<text x="429.0" y="923.7" font-size="13" fill="#333" text-anchor="middle" font-weight="bold">J</text>
<text x="550.1" y="896.4" font-size="13" fill="#333" text-anchor="middle" font-weight="bold">K</text>
<text x="685.3" y="753.6" font-size="13" fill="#333" text-anchor="middle" font-weight="bold">L</text>
<text x="761.8" y="647.9" font-size="13" fill="#333" text-anchor="middle" font-weight="bold">M</text>

<text x="500" y="40" font-size="16" fill="#2c6e2f" text-anchor="middle" font-weight="bold">sinwood-25 — gambar situasi (survei triangulasi)</text>
<text x="500" y="62" font-size="12" fill="#333" text-anchor="middle">Luas terhitung: 1.272,37 m² (12,72 are) &#183; N = titik pusat pengukuran &#183; 13 titik batas A&#8211;M</text>
<g transform="translate(930,80)">
  <line x1="0" y1="25" x2="0" y2="-25" stroke="#222" stroke-width="2"/>
  <polygon points="0,-32 -8,-15 8,-15" fill="#222"/>
  <text x="0" y="42" font-size="13" text-anchor="middle" fill="#222">N</text>
</g>
<g transform="translate(90,970)">
  <line x1="0" y1="0" x2="143.2" y2="0" stroke="#222" stroke-width="2"/>
  <line x1="0" y1="-5" x2="0" y2="5" stroke="#222" stroke-width="2"/>
  <line x1="143.2" y1="-5" x2="143.2" y2="5" stroke="#222" stroke-width="2"/>
  <text x="71.6" y="-8" font-size="12" text-anchor="middle" fill="#222">10 m</text>
</g>
</svg>